#Unknown ASF file
:ROOT_YZX
:FOOT_3DOF
:FULLY-SPECIFIED
:DEGREES
734
root -15.0242 17.5898 47.897 -4.99768 -57.4214 -2.67332
lfemur -5.52359 12.4886 -9.58716
ltibia 55.4357
lfoot 7.86647 0 -14.3442
ltoes -32.525
rfemur -6.39271 9.59974 28.1362
rtibia 32.4265
rfoot -15.2537 0 1.08458
rtoes -6.78896
lowerback 8.07101 -4.99513 -0.510047
upperback 1.67491 -6.65073 4.05459
thorax -2.21983 -3.3511 5.12258
lowerneck 16.7071 -21.6114 -22.7658
upperneck 1.92304 -34.0669 22.8807
head 5.84297 -17.8116 8.10594
lclavicle -7.7526e-015 -1.11319e-014
lhumerus -38.2699 9.49225 86.5007
lradius 26.6871
lwrist -4.59592
lhand -12.418 30.268
lfingers 7.12502
lthumb 13.6542 59.8002
rclavicle -7.7526e-015 -1.11319e-014
rhumerus -29.636 2.99205 -84.1208
rradius 30.765
rwrist -1.92562
rhand -16.6949 17.934
rfingers 7.12502
rthumb 9.52977 -11.8305
735
root -15.1163 17.6352 47.9085 -4.21126 -57.053 -3.0251
lfemur -5.538 12.724 -9.11622
ltibia 54.4831
lfoot 7.86716 0 -13.5061
ltoes -29.3984
rfemur -6.31657 9.1357 28.4482
rtibia 31.3894
rfoot -15.1105 0 1.36687
rtoes -8.72367
lowerback 7.73964 -5.13588 0.151326
upperback 1.3224 -6.7725 4.22646
thorax -2.44693 -3.4061 4.93526
lowerneck 16.9757 -21.872 -22.8817
upperneck 1.88342 -34.5037 22.942
head 5.92099 -18.0397 8.06233
lclavicle 3.97569e-016 -1.59028e-015
lhumerus -38.151 7.49456 86.7658
lradius 27.7645
lwrist -2.82625
lhand -11.2856 30.3892
lfingers 7.12502
lthumb 14.7453 59.8448
rclavicle 3.97569e-016 -1.59028e-015
rhumerus -30.0703 5.47426 -85.3439
rradius 32.3777
rwrist -7.69456
rhand -20.075 13.7051
rfingers 7.12502
rthumb 6.26746 -16.1822
736
root -15.1791 17.5723 47.9015 -3.54822 -56.8245 -3.09379
lfemur -4.84917 13.9154 -9.11375
ltibia 53.2178
lfoot 5.08426 0 -11.853
ltoes -26.2315
rfemur -7.08692 8.78161 28.447
rtibia 31.8764
rfoot -15.4999 0 1.89765
rtoes -5.04128
lowerback 7.67951 -5.22985 0.201502
upperback 1.07417 -6.88175 4.4309
thorax -2.6428 -3.45551 5.14043
lowerneck 17.0858 -21.9104 -22.8886
upperneck 1.77687 -34.5958 23.2024
head 5.94699 -18.0978 8.12885
lclavicle 7.97127e-014 -2.62396e-014
lhumerus -37.7964 6.54151 86.7441
lradius 28.9633
lwrist -1.69452
lhand -11.3507 30.1831
lfingers 7.12502
lthumb 14.6826 59.6432
rclavicle 7.97127e-014 -2.62396e-014
rhumerus -28.7673 0.222808 -84.4483
rradius 30.5287
rwrist -4.72232
rhand -22.3662 11.574
rfingers 7.12502
rthumb 4.05518 -18.3672
737
root -15.239 17.603 47.8924 -3.00725 -56.7153 -3.44395
lfemur -5.33476 13.916 -8.3987
ltibia 53.695
lfoot 3.27447 0 -13.6755
ltoes -30.9473
rfemur -7.20605 7.48231 28.5634
rtibia 31.3027
rfoot -15.4976 0 3.81077
rtoes -0.606559
lowerback 7.84134 -5.36484 0.676324
upperback 1.01718 -7.01342 4.48638
thorax -2.8304 -3.5216 4.97171
lowerneck 17.3414 -21.8615 -22.3432
upperneck 1.64049 -34.4065 23.0601
head 5.70471 -18.0233 8.14897
lclavicle 3.60297e-014 -1.74931e-014
lhumerus -37.1366 5.54208 86.3137
lradius 30.6567
lwrist -0.10324
lhand -11.2051 30.2516
lfingers 7.12502
lthumb 14.8229 59.7014
rclavicle 3.60297e-014 -1.74931e-014
rhumerus -29.7303 2.70093 -84.0771
rradius 31.6322
rwrist -2.26471
rhand -17.855 16.9542
rfingers 7.12502
rthumb 8.41026 -12.8583
738
root -15.2701 17.5092 47.8644 -2.94407 -56.6831 -4.11545
lfemur -4.48731 14.5859 -7.46208
ltibia 53.0802
lfoot 0.239016 0 -12.7054
ltoes -26.4586
rfemur -8.37206 6.31034 29.2722
rtibia 33.285
rfoot -16.5451 0 4.61867
rtoes -4.36177
lowerback 8.25101 -5.31365 1.1104
upperback 1.45901 -6.9167 4.8479
thorax -2.61073 -3.49153 5.11584
lowerneck 17.3659 -21.8395 -22.3299
upperneck 1.0752 -34.3207 23.7735
head 5.64897 -18.0062 8.38071
lclavicle -1.14301e-014 -1.19271e-014
lhumerus -35.8237 4.57984 86.2249
lradius 32.764
lwrist 1.48233
lhand -11.3734 29.8524
lfingers 7.12502
lthumb 14.6608 59.3141
rclavicle -1.14301e-014 -1.19271e-014
rhumerus -29.0828 3.15522 -83.3898
rradius 31.8691
rwrist -1.78927
rhand -17.1719 17.0926
rfingers 7.12502
rthumb 9.06944 -12.6924
739
root -15.2922 17.4404 47.8506 -3.16065 -56.5789 -4.45928
lfemur -3.57936 14.509 -7.00559
ltibia 52.8892
lfoot -3.14902 0 -12.3355
ltoes -26.3023
rfemur -8.92382 5.28317 29.5963
rtibia 34.7119
rfoot -17.1712 0 5.58636
rtoes -2.4702
lowerback 9.10524 -5.36903 1.39217
upperback 1.91993 -6.9578 4.94011
thorax -2.62044 -3.52266 5.12614
lowerneck 17.0469 -21.8591 -21.5782
upperneck 0.977734 -34.0615 23.5627
head 5.4393 -17.8532 8.29958
lclavicle -4.49253e-014 -1.51076e-014
lhumerus -34.7875 3.90136 85.7083
lradius 35.2907
lwrist 2.35522
lhand -12.1304 29.9068
lfingers 7.12502
lthumb 13.9314 59.4201
rclavicle -4.49253e-014 -1.51076e-014
rhumerus -28.5466 5.31501 -83.904
rradius 32.2893
rwrist -4.40898
rhand -18.2424 16.9841
rfingers 7.12502
rthumb 8.03639 -12.8431
740
root -15.3123 17.3783 47.8455 -3.46851 -56.2096 -4.19444
lfemur -2.31198 13.6356 -7.4776
ltibia 51.8366
lfoot -5.93667 0 -11.9054
ltoes -24.41
rfemur -9.33669 4.24496 29.2472
rtibia 36.1727
rfoot -17.6484 0 6.1596
rtoes -2.34612
lowerback 9.69479 -5.16707 1.47412
upperback 2.53231 -6.69369 4.75029
thorax -2.35884 -3.4012 4.87809
lowerneck 16.6619 -22.2228 -20.8592
upperneck 0.850205 -34.2787 23.454
head 5.36248 -17.9266 8.12582
lclavicle 3.08116e-014 -2.94201e-014
lhumerus -33.4697 2.61416 85.4224
lradius 37.9374
lwrist 4.05439
lhand -12.7208 29.7857
lfingers 7.12502
lthumb 13.3624 59.3372
rclavicle 3.08116e-014 -2.94201e-014
rhumerus -28.0987 6.30139 -83.9986
rradius 33.0125
rwrist -6.88643
rhand -20.4931 14.205
rfingers 7.12502
rthumb 5.86376 -15.6939
741
root -15.3196 17.3233 47.803 -3.06815 -55.152 -4.07964
lfemur -2.41841 12.7358 -7.94351
ltibia 51.2987
lfoot -8.63693 0 -11.0671
ltoes -24.6697
rfemur -10.5809 3.32503 29.1715
rtibia 37.6057
rfoot -17.9932 0 6.11992
rtoes 0.402901
lowerback 10.1754 -5.36756 1.0288
upperback 2.64126 -6.99004 4.87424
thorax -2.41824 -3.55184 5.33135
lowerneck 16.2186 -21.9722 -20.4644
upperneck 0.748077 -33.7661 23.625
head 5.25353 -17.6562 8.20514
lclavicle 4.6118e-014 -7.95139e-016
lhumerus -32.7118 3.02601 84.736
lradius 40.4401
lwrist 5.34715
lhand -13.1527 29.6793
lfingers 7.12502
lthumb 12.946 59.2577
rclavicle 4.6118e-014 -7.95139e-016
rhumerus -24.0413 -4.02034 -84.3829
rradius 27.7687
rwrist 2.33641
rhand -21.337 15.6572
rfingers 7.12502
rthumb 5.04895 -14.2626
742
root -15.3368 17.3105 47.8014 -2.78083 -53.9172 -3.93816
lfemur -2.06876 12.0507 -8.51356
ltibia 50.2363
lfoot -10.4988 0 -9.91281
ltoes -21.5487
rfemur -11.1834 1.53566 28.894
rtibia 38.1512
rfoot -18.4019 0 6.11828
rtoes -2.73583
lowerback 10.2743 -5.23235 1.17095
upperback 2.58922 -6.78323 5.20268
thorax -2.51863 -3.45019 5.59019
lowerneck 15.9364 -20.6568 -22.4878
upperneck 0.938895 -32.4422 24.8886
head 5.63748 -17.0314 8.94923
lclavicle -4.77083e-014 -2.38542e-015
lhumerus -31.7938 3.85035 85.4643
lradius 41.9155
lwrist 5.27373
lhand -13.7524 29.4034
lfingers 7.12502
lthumb 12.3679 59.0176
rclavicle -4.77083e-014 -2.38542e-015
rhumerus -24.7528 -2.54399 -83.3296
rradius 27.731
rwrist 0.402572
rhand -21.1775 15.6763
rfingers 7.12502
rthumb 5.20296 -14.2398
743
root -15.3591 17.3445 47.7977 -2.32543 -52.2987 -4.07145
lfemur -2.10998 11.6917 -8.78034
ltibia 49.2483
lfoot -11.7389 0 -8.13412
ltoes -23.3817
rfemur -11.3455 0.385175 28.9685
rtibia 37.6936
rfoot -18.2217 0 5.70986
rtoes -2.95763
lowerback 10.1399 -5.11657 1.52295
upperback 2.42541 -6.58136 5.44511
thorax -2.64314 -3.34693 5.62507
lowerneck 13.7008 -20.2565 -21.6167
upperneck 2.80159 -31.4951 23.2214
head 5.87516 -16.3477 8.27663
lclavicle -2.78299e-015 -1.03368e-014
lhumerus -31.3462 3.05969 86.1242
lradius 43.3599
lwrist 6.41646
lhand -14.3856 29.4869
lfingers 7.12502
lthumb 11.7573 59.137
rclavicle -2.78299e-015 -1.03368e-014
rhumerus -27.222 2.66657 -82.4277
rradius 29.5313
rwrist -6.07276
rhand -22.4641 13.0617
rfingers 7.12502
rthumb 3.96058 -16.8812
744
root -15.3712 17.3794 47.7951 -1.72779 -50.8188 -3.80662
lfemur -2.20321 11.9789 -9.36494
ltibia 47.7852
lfoot -11.9137 0 -6.93754
ltoes -20.9341
rfemur -11.6185 -0.54746 28.6227
rtibia 37.1292
rfoot -18.0192 0 5.32125
rtoes -1.50424
lowerback 9.77304 -4.99318 1.35112
upperback 2.18659 -6.42987 5.65399
thorax -2.66011 -3.26724 5.89977
lowerneck 11.4532 -18.995 -22.1049
upperneck 5.40277 -29.7927 22.2819
head 6.55868 -15.3367 8.08159
lclavicle 4.03533e-014 -2.22639e-014
lhumerus -30.9541 2.8079 86.9331
lradius 44.1654
lwrist 6.51458
lhand -14.0827 29.3548
lfingers 7.12502
lthumb 12.0494 58.9879
rclavicle 4.03533e-014 -2.22639e-014
rhumerus -26.4119 -7.88886 -78.0636
rradius 23.9293
rwrist 5.8345
rhand -19.1275 18.5991
rfingers 7.12502
rthumb 7.18204 -11.2591
745
root -15.3797 17.4382 47.8083 -1.10475 -48.7375 -3.46857
lfemur -2.15791 13.182 -10.0552
ltibia 46.2858
lfoot -13.1242 0 -4.87276
ltoes -25.7162
rfemur -11.7605 -2.10567 28.0783
rtibia 36.3073
rfoot -17.7798 0 5.26337
rtoes 0.250654
lowerback 9.48597 -4.98163 1.49258
upperback 1.70723 -6.37384 5.76084
thorax -3.01091 -3.22485 5.9308
lowerneck 7.93567 -17.6203 -21.488
upperneck 9.1366 -27.5018 19.8972
head 7.3095 -13.9647 7.31859
lclavicle -8.5875e-014 -1.59028e-014
lhumerus -31.1801 1.43664 88.0895
lradius 44.9438
lwrist 7.06309
lhand -14.0804 29.5291
lfingers 7.12502
lthumb 12.0516 59.1621
rclavicle -8.5875e-014 -1.59028e-014
rhumerus -28.27 -3.85752 -78.6231
rradius 24.8303
rwrist 2.20996
rhand -19.0054 17.7625
rfingers 7.12502
rthumb 7.2999 -12.0916
746
root -15.3738 17.4878 47.7874 -0.665047 -46.5985 -3.35116
lfemur -2.49319 14.1234 -10.3382
ltibia 45.2433
lfoot -13.6319 0 -3.48182
ltoes -24.9943
rfemur -11.7537 -2.13344 28.1471
rtibia 35.3932
rfoot -17.6773 0 3.24447
rtoes 2.527
lowerback 9.51034 -4.97525 1.52384
upperback 1.43399 -6.33452 6.02272
thorax -3.28657 -3.19751 6.20954
lowerneck 3.63266 -15.9394 -19.7595
upperneck 12.7285 -24.4686 17.3352
head 7.94266 -12.2291 6.43916
lclavicle 2.20651e-014 -4.6118e-014
lhumerus -31.2438 0.107481 89.1908
lradius 45.5309
lwrist 6.77174
lhand -13.8328 29.2737
lfingers 7.12502
lthumb 12.2904 58.8925
rclavicle 2.20651e-014 -4.6118e-014
rhumerus -28.7958 -8.89619 -76.4064
rradius 23.3777
rwrist 7.747
rhand -18.1837 18.9099
rfingers 7.12502
rthumb 8.09308 -10.9152
747
root -15.3628 17.5305 47.7817 -0.112527 -44.7607 -2.44405
lfemur -2.86495 15.3104 -11.6652
ltibia 44.4974
lfoot -14.0364 0 -1.95748
ltoes -28.9423
rfemur -12.0704 -1.48162 27.3574
rtibia 34.9178
rfoot -17.9102 0 0.243509
rtoes -2.19911
lowerback 9.31062 -4.57118 1.34345
upperback 1.08865 -5.79536 5.82134
thorax -3.59077 -2.91053 6.03956
lowerneck -0.0654614 -13.8721 -19.4045
upperneck 16.1873 -21.2001 16.0632
head 8.88445 -10.4955 6.25484
lclavicle -1.0635e-013 -1.59028e-015
lhumerus -31.596 -2.35191 90.4565
lradius 46.0415
lwrist 6.44247
lhand -13.0223 29.1717
lfingers 7.12502
lthumb 13.0717 58.7421
rclavicle -1.0635e-013 -1.59028e-015
rhumerus -28.7839 -14.4775 -74.4186
rradius 20.681
rwrist 10.5451
rhand -20.6123 17.3826
rfingers 7.12502
rthumb 5.74866 -12.5194
748
root -15.3281 17.5308 47.7522 0.152127 -42.2605 -1.4849
lfemur -3.33428 15.6097 -13.06
ltibia 44.0391
lfoot -14.5505 0 -0.706886
ltoes -28.92
rfemur -12.6764 -1.70464 26.3997
rtibia 35.418
rfoot -18.4664 0 -2.12113
rtoes -4.46176
lowerback 9.24348 -4.56881 0.869203
upperback 1.32433 -5.85194 5.8145
thorax -3.25499 -2.94076 6.27946
lowerneck -5.05251 -11.547 -18.7422
upperneck 19.6368 -17.2005 14.6782
head 9.9895 -8.40495 6.0888
lclavicle -5.34731e-014 -3.18055e-015
lhumerus -31.1638 -3.81441 91.5361
lradius 46.4838
lwrist 5.91522
lhand -12.9666 28.9168
lfingers 7.12502
lthumb 13.1253 58.4838
rclavicle -5.34731e-014 -3.18055e-015
rhumerus -31.2449 -3.88147 -77.8461
rradius 27.1007
rwrist -1.11881
rhand -20.6439 14.2655
rfingers 7.12502
rthumb 5.71814 -15.6374
